<?xml version="1.0" encoding="UTF-8"?>
<svg xmlns="http://www.w3.org/2000/svg" xmlns:xlink="http://www.w3.org/1999/xlink" width="156px" height="39px" viewBox="0 0 156 39" version="1.1">
<g id="surface1">
<path style="fill:none;stroke-width:0.12329;stroke-linecap:butt;stroke-linejoin:miter;stroke:rgb(0%,0%,0%);stroke-opacity:1;stroke-miterlimit:10;" d="M 0.00079695 -0.00089476 Z M 0.00079695 -0.00089476 " transform="matrix(2.030561,0,0,-2.052632,77.701507,18.978632)"/>
<path style=" stroke:none;fill-rule:nonzero;fill:rgb(0%,0%,0%);fill-opacity:1;" d="M 12.246094 22.179688 C 13.320312 20.46875 13.679688 19.148438 13.941406 18.0625 C 14.660156 15.261719 15.410156 12.789062 16.679688 11.371094 C 16.90625 11.109375 17.070312 10.945312 17.722656 10.945312 C 19.125 10.945312 19.15625 12.359375 19.15625 12.625 C 19.15625 12.988281 19.058594 13.285156 19.058594 13.382812 C 19.058594 13.546875 19.191406 13.546875 19.191406 13.546875 C 19.515625 13.546875 20.070312 13.316406 20.589844 12.953125 C 20.949219 12.65625 21.113281 12.460938 21.113281 11.601562 C 21.113281 10.515625 20.558594 9.660156 19.417969 9.660156 C 18.765625 9.660156 17.003906 9.824219 15.015625 11.867188 C 13.386719 13.546875 12.441406 17.203125 12.050781 18.753906 C 11.691406 20.171875 11.527344 20.796875 10.910156 22.015625 C 10.78125 22.28125 10.257812 23.167969 9.964844 23.433594 C 9.410156 23.960938 9.214844 24.324219 9.214844 24.421875 C 9.214844 24.453125 9.246094 24.554688 9.410156 24.554688 C 9.476562 24.554688 9.898438 24.453125 10.453125 24.125 C 10.78125 23.894531 10.8125 23.859375 11.300781 23.367188 C 12.3125 23.398438 12.996094 23.566406 14.300781 23.960938 C 15.308594 24.222656 16.355469 24.554688 17.398438 24.554688 C 19.027344 24.554688 20.6875 23.300781 21.339844 22.378906 C 21.730469 21.851562 21.863281 21.324219 21.863281 21.257812 C 21.863281 21.125 21.730469 21.125 21.699219 21.125 C 21.375 21.125 20.917969 21.355469 20.558594 21.585938 C 20.003906 21.949219 19.972656 22.082031 19.839844 22.410156 C 19.742188 22.742188 19.613281 22.90625 19.546875 23.039062 C 19.386719 23.269531 19.351562 23.269531 19.058594 23.269531 C 18.082031 23.269531 17.070312 22.972656 15.734375 22.609375 C 15.179688 22.445312 14.070312 22.113281 13.0625 22.113281 C 12.800781 22.113281 12.507812 22.113281 12.246094 22.179688 Z M 12.246094 22.179688 "/>
<path style=" stroke:none;fill-rule:nonzero;fill:rgb(0%,0%,0%);fill-opacity:1;" d="M 42.085938 17.402344 C 42.378906 17.402344 42.773438 17.402344 42.773438 17.007812 C 42.773438 16.578125 42.378906 16.578125 42.085938 16.578125 L 29.960938 16.578125 C 29.699219 16.578125 29.308594 16.578125 29.308594 17.007812 C 29.308594 17.402344 29.699219 17.402344 29.992188 17.402344 Z M 42.085938 21.355469 C 42.378906 21.355469 42.773438 21.355469 42.773438 20.960938 C 42.773438 20.566406 42.378906 20.566406 42.085938 20.566406 L 29.992188 20.566406 C 29.699219 20.566406 29.308594 20.566406 29.308594 20.960938 C 29.308594 21.355469 29.699219 21.355469 29.960938 21.355469 Z M 42.085938 21.355469 "/>
<path style=" stroke:none;fill-rule:nonzero;fill:rgb(0%,0%,0%);fill-opacity:1;" d="M 62.855469 19.378906 C 63.210938 19.378906 63.570312 19.378906 63.570312 18.984375 C 63.570312 18.554688 63.210938 18.554688 62.855469 18.554688 L 51.902344 18.554688 C 51.574219 18.554688 51.214844 18.554688 51.214844 18.984375 C 51.214844 19.378906 51.574219 19.378906 51.902344 19.378906 Z M 62.855469 19.378906 "/>
<path style=" stroke:none;fill-rule:nonzero;fill:rgb(0%,0%,0%);fill-opacity:1;" d="M 72.410156 6.945312 C 72.410156 6.550781 72.410156 6.550781 71.988281 6.550781 C 71.109375 7.4375 69.804688 7.472656 69.21875 7.472656 L 69.21875 7.964844 C 69.574219 7.964844 70.488281 7.964844 71.269531 7.570312 L 71.269531 14.851562 C 71.269531 15.347656 71.269531 15.511719 69.867188 15.511719 L 69.316406 15.511719 L 69.316406 16.039062 C 69.574219 16.039062 71.335938 15.972656 71.855469 15.972656 C 72.28125 15.972656 74.074219 16.039062 74.367188 16.039062 L 74.367188 15.511719 L 73.84375 15.511719 C 72.410156 15.511719 72.410156 15.347656 72.410156 14.851562 Z M 72.410156 6.945312 "/>
<path style="fill:none;stroke-width:0.398;stroke-linecap:butt;stroke-linejoin:miter;stroke:rgb(0%,0%,0%);stroke-opacity:1;stroke-miterlimit:10;" d="M 0.00135091 -0.00089476 L 3.970005 -0.00089476 " transform="matrix(2.030561,0,0,-2.052632,67.684757,18.978632)"/>
<path style=" stroke:none;fill-rule:nonzero;fill:rgb(0%,0%,0%);fill-opacity:1;" d="M 75.183594 28.804688 L 75.183594 28.277344 L 73.585938 28.277344 L 73.585938 21.917969 C 73.585938 21.621094 73.585938 21.488281 73.292969 21.488281 C 73.128906 21.488281 73.0625 21.488281 72.933594 21.71875 L 68.238281 28.277344 L 68.238281 28.804688 L 72.410156 28.804688 L 72.410156 29.957031 C 72.410156 30.449219 72.410156 30.617188 71.238281 30.617188 L 70.878906 30.617188 L 70.878906 31.140625 C 71.5625 31.109375 72.476562 31.078125 73 31.078125 C 73.519531 31.078125 74.433594 31.109375 75.117188 31.140625 L 75.117188 30.617188 L 74.757812 30.617188 C 73.585938 30.617188 73.585938 30.449219 73.585938 29.957031 L 73.585938 28.804688 Z M 72.507812 23.035156 L 72.507812 28.277344 L 68.761719 28.277344 Z M 72.507812 23.035156 "/>
<path style=" stroke:none;fill-rule:nonzero;fill:rgb(0%,0%,0%);fill-opacity:1;" d="M 84.304688 17.433594 L 86.257812 17.433594 C 87.789062 17.433594 87.953125 17.765625 87.953125 18.359375 C 87.953125 18.488281 87.953125 18.753906 87.824219 19.378906 C 87.757812 19.476562 87.757812 19.542969 87.757812 19.578125 C 87.757812 19.742188 87.855469 19.839844 87.988281 19.839844 C 88.183594 19.839844 88.183594 19.773438 88.3125 19.414062 L 89.421875 14.964844 C 89.484375 14.734375 89.484375 14.699219 89.484375 14.632812 C 89.484375 14.601562 89.421875 14.402344 89.226562 14.402344 C 89.03125 14.402344 88.996094 14.503906 88.933594 14.832031 C 88.507812 16.445312 88.019531 16.808594 86.324219 16.808594 L 84.464844 16.808594 L 85.769531 11.601562 C 85.933594 10.878906 85.964844 10.8125 86.84375 10.8125 L 89.519531 10.8125 C 92.027344 10.8125 92.484375 11.472656 92.484375 13.054688 C 92.484375 13.546875 92.484375 13.613281 92.417969 14.171875 C 92.386719 14.4375 92.386719 14.46875 92.386719 14.535156 C 92.386719 14.632812 92.453125 14.765625 92.617188 14.765625 C 92.84375 14.765625 92.875 14.667969 92.910156 14.273438 L 93.332031 10.714844 C 93.363281 10.1875 93.265625 10.1875 92.777344 10.1875 L 82.835938 10.1875 C 82.445312 10.1875 82.25 10.1875 82.25 10.582031 C 82.25 10.8125 82.414062 10.8125 82.804688 10.8125 C 83.554688 10.8125 84.140625 10.8125 84.140625 11.175781 C 84.140625 11.273438 84.140625 11.304688 84.007812 11.667969 L 81.335938 22.511719 C 81.140625 23.300781 81.109375 23.464844 79.511719 23.464844 C 79.152344 23.464844 78.957031 23.464844 78.957031 23.859375 C 78.957031 24.089844 79.183594 24.089844 79.25 24.089844 C 79.835938 24.089844 81.335938 24.027344 81.921875 24.027344 C 82.574219 24.027344 84.269531 24.089844 84.921875 24.089844 C 85.117188 24.089844 85.347656 24.089844 85.347656 23.695312 C 85.347656 23.53125 85.25 23.5 85.25 23.464844 C 85.183594 23.464844 85.152344 23.464844 84.660156 23.464844 C 84.238281 23.464844 84.140625 23.464844 83.617188 23.433594 C 83.03125 23.367188 82.964844 23.269531 82.964844 23.003906 C 82.964844 22.972656 82.964844 22.839844 83.0625 22.542969 Z M 84.304688 17.433594 "/>
<path style=" stroke:none;fill-rule:nonzero;fill:rgb(0%,0%,0%);fill-opacity:1;" d="M 94.746094 18.976562 C 94.710938 19.175781 94.710938 19.273438 94.710938 19.273438 C 94.710938 19.605469 94.972656 19.734375 95.167969 19.734375 C 95.691406 19.734375 95.820312 19.273438 95.851562 19.011719 C 95.886719 18.945312 96.179688 17.792969 96.503906 16.40625 C 96.960938 16.703125 97.515625 16.804688 98.035156 16.804688 C 99.242188 16.804688 100.023438 15.816406 100.058594 15.78125 C 100.320312 16.769531 101.296875 16.804688 101.523438 16.804688 C 102.046875 16.804688 102.371094 16.507812 102.632812 16.046875 C 102.960938 15.484375 103.121094 14.695312 103.121094 14.628906 C 103.121094 14.429688 102.960938 14.429688 102.894531 14.429688 C 102.699219 14.429688 102.699219 14.496094 102.601562 14.890625 C 102.4375 15.585938 102.144531 16.40625 101.558594 16.40625 C 101.199219 16.40625 101.101562 16.109375 101.101562 15.714844 C 101.101562 15.484375 101.199219 14.957031 101.296875 14.59375 C 101.394531 14.199219 101.558594 13.605469 101.621094 13.308594 L 101.949219 12.023438 C 102.046875 11.664062 102.175781 11.035156 102.175781 10.972656 C 102.175781 10.675781 101.949219 10.507812 101.71875 10.507812 C 101.558594 10.507812 101.296875 10.574219 101.132812 10.839844 C 101.101562 10.9375 100.96875 11.398438 100.90625 11.695312 L 100.613281 12.882812 L 100.1875 14.660156 C 100.089844 15.023438 100.089844 15.058594 99.960938 15.222656 C 99.503906 15.847656 98.882812 16.40625 98.070312 16.40625 C 96.929688 16.40625 96.929688 15.386719 96.929688 15.15625 C 96.929688 14.761719 96.960938 14.59375 97.15625 13.804688 C 97.320312 13.179688 97.320312 13.078125 97.484375 12.519531 L 97.679688 11.730469 C 97.742188 11.433594 97.875 10.871094 97.875 10.804688 C 97.875 10.574219 97.679688 10.378906 97.417969 10.378906 C 96.894531 10.378906 96.765625 10.871094 96.734375 11.035156 Z M 94.746094 18.976562 "/>
<path style=" stroke:none;fill-rule:nonzero;fill:rgb(0%,0%,0%);fill-opacity:1;" d="M 107.382812 10.773438 C 107.382812 10.707031 107.417969 10.640625 107.417969 10.574219 C 107.417969 10.542969 107.417969 10.378906 107.1875 10.378906 C 107.15625 10.378906 106.375 10.445312 106.277344 10.445312 C 105.980469 10.476562 105.753906 10.476562 105.460938 10.507812 C 105.234375 10.507812 105.070312 10.542969 105.070312 10.839844 C 105.070312 11.035156 105.265625 11.035156 105.429688 11.035156 C 106.113281 11.035156 106.113281 11.136719 106.113281 11.265625 C 106.113281 11.332031 106.046875 11.628906 105.980469 11.792969 L 105.296875 14.695312 C 104.9375 16.144531 104.875 16.40625 104.875 16.472656 C 104.875 16.671875 105.070312 16.671875 105.132812 16.671875 L 105.363281 16.671875 C 106.601562 16.472656 108.425781 15.816406 109.925781 14.429688 C 111.851562 12.71875 112.144531 10.839844 112.144531 10.804688 C 112.144531 10.574219 111.949219 10.378906 111.652344 10.378906 C 111.164062 10.378906 111.066406 10.773438 110.9375 11.167969 C 110.382812 13.210938 108.460938 15.386719 106.078125 16.109375 Z M 107.382812 10.773438 "/>
<path style=" stroke:none;fill-rule:nonzero;fill:rgb(0%,0%,0%);fill-opacity:1;" d="M 120.023438 17.433594 L 121.980469 17.433594 C 123.511719 17.433594 123.675781 17.765625 123.675781 18.359375 C 123.675781 18.488281 123.675781 18.753906 123.546875 19.378906 C 123.480469 19.476562 123.480469 19.542969 123.480469 19.578125 C 123.480469 19.742188 123.578125 19.839844 123.707031 19.839844 C 123.902344 19.839844 123.902344 19.773438 124.035156 19.414062 L 125.140625 14.964844 C 125.207031 14.734375 125.207031 14.699219 125.207031 14.632812 C 125.207031 14.601562 125.140625 14.402344 124.945312 14.402344 C 124.75 14.402344 124.71875 14.503906 124.652344 14.832031 C 124.230469 16.445312 123.742188 16.808594 122.046875 16.808594 L 120.1875 16.808594 L 121.492188 11.601562 C 121.65625 10.878906 121.6875 10.8125 122.566406 10.8125 L 125.238281 10.8125 C 127.75 10.8125 128.207031 11.472656 128.207031 13.054688 C 128.207031 13.546875 128.207031 13.613281 128.140625 14.171875 C 128.109375 14.4375 128.109375 14.46875 128.109375 14.535156 C 128.109375 14.632812 128.175781 14.765625 128.335938 14.765625 C 128.566406 14.765625 128.597656 14.667969 128.628906 14.273438 L 129.054688 10.714844 C 129.085938 10.1875 128.988281 10.1875 128.5 10.1875 L 118.558594 10.1875 C 118.167969 10.1875 117.972656 10.1875 117.972656 10.582031 C 117.972656 10.8125 118.132812 10.8125 118.523438 10.8125 C 119.273438 10.8125 119.863281 10.8125 119.863281 11.175781 C 119.863281 11.273438 119.863281 11.304688 119.730469 11.667969 L 117.058594 22.511719 C 116.863281 23.300781 116.828125 23.464844 115.234375 23.464844 C 114.875 23.464844 114.679688 23.464844 114.679688 23.859375 C 114.679688 24.089844 114.90625 24.089844 114.972656 24.089844 C 115.558594 24.089844 117.058594 24.027344 117.644531 24.027344 C 118.296875 24.027344 119.992188 24.089844 120.644531 24.089844 C 120.839844 24.089844 121.066406 24.089844 121.066406 23.695312 C 121.066406 23.53125 120.96875 23.5 120.96875 23.464844 C 120.90625 23.464844 120.871094 23.464844 120.382812 23.464844 C 119.960938 23.464844 119.863281 23.464844 119.339844 23.433594 C 118.753906 23.367188 118.6875 23.269531 118.6875 23.003906 C 118.6875 22.972656 118.6875 22.839844 118.785156 22.542969 Z M 120.023438 17.433594 "/>
<path style=" stroke:none;fill-rule:nonzero;fill:rgb(0%,0%,0%);fill-opacity:1;" d="M 127.652344 29.464844 C 127.621094 29.664062 127.621094 29.761719 127.621094 29.761719 C 127.621094 30.089844 127.882812 30.222656 128.078125 30.222656 C 128.597656 30.222656 128.730469 29.761719 128.761719 29.496094 C 128.792969 29.433594 129.089844 28.277344 129.414062 26.894531 C 129.871094 27.191406 130.425781 27.289062 130.945312 27.289062 C 132.152344 27.289062 132.933594 26.300781 132.96875 26.269531 C 133.226562 27.257812 134.207031 27.289062 134.433594 27.289062 C 134.957031 27.289062 135.28125 26.992188 135.542969 26.53125 C 135.867188 25.972656 136.03125 25.179688 136.03125 25.117188 C 136.03125 24.917969 135.867188 24.917969 135.804688 24.917969 C 135.609375 24.917969 135.609375 24.984375 135.507812 25.378906 C 135.347656 26.070312 135.054688 26.894531 134.464844 26.894531 C 134.109375 26.894531 134.011719 26.597656 134.011719 26.203125 C 134.011719 25.972656 134.109375 25.445312 134.207031 25.082031 C 134.304688 24.6875 134.464844 24.09375 134.53125 23.796875 L 134.859375 22.511719 C 134.957031 22.148438 135.085938 21.523438 135.085938 21.457031 C 135.085938 21.160156 134.859375 20.996094 134.628906 20.996094 C 134.464844 20.996094 134.207031 21.0625 134.042969 21.324219 C 134.011719 21.425781 133.878906 21.886719 133.816406 22.183594 L 133.519531 23.367188 L 133.097656 25.148438 C 133 25.511719 133 25.542969 132.871094 25.707031 C 132.414062 26.335938 131.792969 26.894531 130.980469 26.894531 C 129.835938 26.894531 129.835938 25.875 129.835938 25.644531 C 129.835938 25.246094 129.871094 25.082031 130.066406 24.292969 C 130.230469 23.664062 130.230469 23.566406 130.390625 23.007812 L 130.585938 22.214844 C 130.652344 21.917969 130.78125 21.359375 130.78125 21.292969 C 130.78125 21.0625 130.585938 20.863281 130.328125 20.863281 C 129.804688 20.863281 129.675781 21.359375 129.640625 21.523438 Z M 127.652344 29.464844 "/>
<path style=" stroke:none;fill-rule:nonzero;fill:rgb(0%,0%,0%);fill-opacity:1;" d="M 140.292969 21.261719 C 140.292969 21.195312 140.324219 21.128906 140.324219 21.0625 C 140.324219 21.03125 140.324219 20.863281 140.097656 20.863281 C 140.066406 20.863281 139.28125 20.929688 139.183594 20.929688 C 138.890625 20.964844 138.664062 20.964844 138.371094 20.996094 C 138.140625 20.996094 137.980469 21.03125 137.980469 21.324219 C 137.980469 21.523438 138.175781 21.523438 138.335938 21.523438 C 139.023438 21.523438 139.023438 21.621094 139.023438 21.753906 C 139.023438 21.820312 138.957031 22.117188 138.890625 22.28125 L 138.207031 25.179688 C 137.847656 26.632812 137.78125 26.894531 137.78125 26.960938 C 137.78125 27.160156 137.980469 27.160156 138.042969 27.160156 L 138.273438 27.160156 C 139.511719 26.960938 141.335938 26.300781 142.835938 24.917969 C 144.757812 23.203125 145.050781 21.324219 145.050781 21.292969 C 145.050781 21.0625 144.855469 20.863281 144.5625 20.863281 C 144.074219 20.863281 143.976562 21.261719 143.847656 21.65625 C 143.292969 23.699219 141.367188 25.875 138.988281 26.597656 Z M 140.292969 21.261719 "/>
</g>
</svg>
