<?xml version="1.0" encoding="UTF-8"?>
<svg xmlns="http://www.w3.org/2000/svg" xmlns:xlink="http://www.w3.org/1999/xlink" width="15600px" height="3900px" viewBox="0 0 15600 3900" version="1.1">
<g id="surface1">
<path style="fill:none;stroke-width:0.12329;stroke-linecap:butt;stroke-linejoin:miter;stroke:rgb(0%,0%,0%);stroke-opacity:1;stroke-miterlimit:10;" d="M 0.00104703 -0.000742517 Z M 0.00104703 -0.000742517 " transform="matrix(203.056074,0,0,-205.263205,7770.150674,1897.863214)"/>
<path style=" stroke:none;fill-rule:nonzero;fill:rgb(0%,0%,0%);fill-opacity:1;" d="M 1224.636719 2218.054688 C 1332.207031 2046.707031 1368.0625 1914.898438 1394.140625 1806.160156 C 1465.855469 1526.070312 1540.828125 1278.933594 1667.957031 1137.238281 C 1690.777344 1110.878906 1707.074219 1094.402344 1772.269531 1094.402344 C 1912.4375 1094.402344 1915.699219 1236.09375 1915.699219 1262.457031 C 1915.699219 1298.703125 1905.917969 1328.359375 1905.917969 1338.246094 C 1905.917969 1354.71875 1918.957031 1354.71875 1918.957031 1354.71875 C 1951.554688 1354.71875 2006.972656 1331.65625 2059.125 1295.40625 C 2094.984375 1265.75 2111.28125 1245.980469 2111.28125 1160.304688 C 2111.28125 1051.566406 2055.867188 965.890625 1941.777344 965.890625 C 1876.582031 965.890625 1700.554688 982.367188 1501.710938 1186.667969 C 1338.726562 1354.71875 1244.195312 1720.484375 1205.078125 1875.355469 C 1169.21875 2017.050781 1152.921875 2079.65625 1090.984375 2201.578125 C 1077.945312 2227.941406 1025.792969 2316.910156 996.453125 2343.269531 C 941.039062 2395.992188 921.480469 2432.238281 921.480469 2442.125 C 921.480469 2445.421875 924.738281 2455.304688 941.039062 2455.304688 C 947.558594 2455.304688 989.933594 2445.421875 1045.347656 2412.46875 C 1077.945312 2389.402344 1081.207031 2386.109375 1130.101562 2336.679688 C 1231.15625 2339.976562 1299.609375 2356.449219 1430 2395.992188 C 1531.050781 2422.355469 1635.363281 2455.304688 1739.671875 2455.304688 C 1902.660156 2455.304688 2068.90625 2330.089844 2134.101562 2237.824219 C 2173.21875 2185.101562 2186.257812 2132.378906 2186.257812 2125.789062 C 2186.257812 2112.609375 2173.21875 2112.609375 2169.957031 2112.609375 C 2137.359375 2112.609375 2091.722656 2135.675781 2055.867188 2158.742188 C 2000.453125 2194.988281 1997.191406 2208.167969 1984.152344 2241.121094 C 1974.375 2274.070312 1961.335938 2290.546875 1954.816406 2303.726562 C 1938.515625 2326.792969 1935.257812 2326.792969 1905.917969 2326.792969 C 1808.128906 2326.792969 1707.074219 2297.136719 1573.425781 2260.890625 C 1518.011719 2244.414062 1407.179688 2211.464844 1306.128906 2211.464844 C 1280.050781 2211.464844 1250.710938 2211.464844 1224.636719 2218.054688 Z M 1224.636719 2218.054688 "/>
<path style=" stroke:none;fill-rule:nonzero;fill:rgb(0%,0%,0%);fill-opacity:1;" d="M 4208.707031 1740.253906 C 4238.046875 1740.253906 4277.164062 1740.253906 4277.164062 1700.714844 C 4277.164062 1657.875 4238.046875 1657.875 4208.707031 1657.875 L 2996.085938 1657.875 C 2970.007812 1657.875 2930.890625 1657.875 2930.890625 1700.714844 C 2930.890625 1740.253906 2970.007812 1740.253906 2999.347656 1740.253906 Z M 4208.707031 2135.675781 C 4238.046875 2135.675781 4277.164062 2135.675781 4277.164062 2096.132812 C 4277.164062 2056.589844 4238.046875 2056.589844 4208.707031 2056.589844 L 2999.347656 2056.589844 C 2970.007812 2056.589844 2930.890625 2056.589844 2930.890625 2096.132812 C 2930.890625 2135.675781 2970.007812 2135.675781 2996.085938 2135.675781 Z M 4208.707031 2135.675781 "/>
<path style=" stroke:none;fill-rule:nonzero;fill:rgb(0%,0%,0%);fill-opacity:1;" d="M 6285.371094 1937.964844 C 6321.226562 1937.964844 6357.085938 1937.964844 6357.085938 1898.421875 C 6357.085938 1855.585938 6321.226562 1855.585938 6285.371094 1855.585938 L 5190.097656 1855.585938 C 5157.503906 1855.585938 5121.644531 1855.585938 5121.644531 1898.421875 C 5121.644531 1937.964844 5157.503906 1937.964844 5190.097656 1937.964844 Z M 6285.371094 1937.964844 "/>
<path style=" stroke:none;fill-rule:nonzero;fill:rgb(0%,0%,0%);fill-opacity:1;" d="M 7241.136719 694.460938 C 7241.136719 654.917969 7241.136719 654.917969 7198.761719 654.917969 C 7110.746094 743.886719 6980.359375 747.183594 6921.683594 747.183594 L 6921.683594 796.609375 C 6957.539062 796.609375 7048.8125 796.609375 7127.046875 757.070312 L 7127.046875 1485.300781 C 7127.046875 1534.726562 7127.046875 1551.203125 6986.878906 1551.203125 L 6931.460938 1551.203125 L 6931.460938 1603.925781 C 6957.539062 1603.925781 7133.566406 1597.335938 7185.722656 1597.335938 C 7228.097656 1597.335938 7407.382812 1603.925781 7436.722656 1603.925781 L 7436.722656 1551.203125 L 7384.566406 1551.203125 C 7241.136719 1551.203125 7241.136719 1534.726562 7241.136719 1485.300781 Z M 7241.136719 694.460938 "/>
<path style="fill:none;stroke-width:0.398;stroke-linecap:butt;stroke-linejoin:miter;stroke:rgb(0%,0%,0%);stroke-opacity:1;stroke-miterlimit:10;" d="M 0.00163947 -0.000742517 L 3.970832 -0.000742517 " transform="matrix(203.056074,0,0,-205.263205,6768.475689,1897.863214)"/>
<path style=" stroke:none;fill-rule:nonzero;fill:rgb(0%,0%,0%);fill-opacity:1;" d="M 7518.214844 2880.296875 L 7518.214844 2827.574219 L 7358.488281 2827.574219 L 7358.488281 2191.605469 C 7358.488281 2161.949219 7358.488281 2148.769531 7329.148438 2148.769531 C 7312.851562 2148.769531 7306.332031 2148.769531 7293.292969 2171.835938 L 6823.890625 2827.574219 L 6823.890625 2880.296875 L 7241.136719 2880.296875 L 7241.136719 2995.625 C 7241.136719 3045.054688 7241.136719 3061.53125 7123.785156 3061.53125 L 7087.929688 3061.53125 L 7087.929688 3114.253906 C 7156.382812 3110.957031 7247.65625 3107.664062 7299.8125 3107.664062 C 7351.96875 3107.664062 7443.242188 3110.957031 7511.695312 3114.253906 L 7511.695312 3061.53125 L 7475.839844 3061.53125 C 7358.488281 3061.53125 7358.488281 3045.054688 7358.488281 2995.625 L 7358.488281 2880.296875 Z M 7250.917969 2303.640625 L 7250.917969 2827.574219 L 6876.046875 2827.574219 Z M 7250.917969 2303.640625 "/>
<path style=" stroke:none;fill-rule:nonzero;fill:rgb(0%,0%,0%);fill-opacity:1;" d="M 8430.292969 1743.550781 L 8625.878906 1743.550781 C 8779.085938 1743.550781 8795.382812 1776.5 8795.382812 1835.816406 C 8795.382812 1848.996094 8795.382812 1875.355469 8782.34375 1937.964844 C 8775.824219 1947.851562 8775.824219 1954.441406 8775.824219 1957.734375 C 8775.824219 1974.210938 8785.605469 1984.097656 8798.644531 1984.097656 C 8818.203125 1984.097656 8818.203125 1977.507812 8831.238281 1941.261719 L 8942.070312 1496.414062 C 8948.589844 1473.347656 8948.589844 1470.050781 8948.589844 1463.460938 C 8948.589844 1460.164062 8942.070312 1440.394531 8922.511719 1440.394531 C 8902.953125 1440.394531 8899.695312 1450.28125 8893.175781 1483.230469 C 8850.796875 1644.695312 8801.902344 1680.941406 8632.394531 1680.941406 L 8446.589844 1680.941406 L 8576.980469 1160.304688 C 8593.28125 1087.8125 8596.539062 1081.222656 8684.550781 1081.222656 L 8951.851562 1081.222656 C 9202.851562 1081.222656 9248.484375 1147.125 9248.484375 1305.292969 C 9248.484375 1354.71875 9248.484375 1361.3125 9241.964844 1417.328125 C 9238.707031 1443.691406 9238.707031 1446.984375 9238.707031 1453.574219 C 9238.707031 1463.460938 9245.226562 1476.640625 9261.523438 1476.640625 C 9284.34375 1476.640625 9287.601562 1466.757812 9290.863281 1427.214844 L 9333.238281 1071.335938 C 9336.5 1018.613281 9326.71875 1018.613281 9277.824219 1018.613281 L 8283.605469 1018.613281 C 8244.488281 1018.613281 8224.929688 1018.613281 8224.929688 1058.15625 C 8224.929688 1081.222656 8241.226562 1081.222656 8280.34375 1081.222656 C 8355.320312 1081.222656 8413.996094 1081.222656 8413.996094 1117.46875 C 8413.996094 1127.355469 8413.996094 1130.648438 8400.957031 1166.894531 L 8133.65625 2251.003906 C 8114.097656 2330.089844 8110.839844 2346.566406 7951.113281 2346.566406 C 7915.253906 2346.566406 7895.695312 2346.566406 7895.695312 2386.109375 C 7895.695312 2409.171875 7918.515625 2409.171875 7925.035156 2409.171875 C 7983.710938 2409.171875 8133.65625 2402.582031 8192.332031 2402.582031 C 8257.527344 2402.582031 8427.03125 2409.171875 8492.226562 2409.171875 C 8511.785156 2409.171875 8534.605469 2409.171875 8534.605469 2369.632812 C 8534.605469 2353.15625 8524.824219 2349.859375 8524.824219 2346.566406 C 8518.304688 2346.566406 8515.046875 2346.566406 8466.148438 2346.566406 C 8423.773438 2346.566406 8413.996094 2346.566406 8361.839844 2343.269531 C 8303.164062 2336.679688 8296.644531 2326.792969 8296.644531 2300.433594 C 8296.644531 2297.136719 8296.644531 2283.957031 8306.421875 2254.300781 Z M 8430.292969 1743.550781 "/>
<path style=" stroke:none;fill-rule:nonzero;fill:rgb(0%,0%,0%);fill-opacity:1;" d="M 9474.445312 1897.808594 C 9471.1875 1917.578125 9471.1875 1927.464844 9471.1875 1927.464844 C 9471.1875 1960.417969 9497.265625 1973.597656 9516.824219 1973.597656 C 9568.980469 1973.597656 9582.015625 1927.464844 9585.277344 1901.105469 C 9588.535156 1894.515625 9617.875 1779.183594 9650.472656 1640.785156 C 9696.109375 1670.441406 9751.523438 1680.328125 9803.679688 1680.328125 C 9924.289062 1680.328125 10002.523438 1581.472656 10005.78125 1578.179688 C 10031.859375 1677.03125 10129.652344 1680.328125 10152.472656 1680.328125 C 10204.625 1680.328125 10237.222656 1650.671875 10263.300781 1604.539062 C 10295.898438 1548.519531 10312.199219 1469.4375 10312.199219 1462.847656 C 10312.199219 1443.074219 10295.898438 1443.074219 10289.378906 1443.074219 C 10269.820312 1443.074219 10269.820312 1449.667969 10260.042969 1489.207031 C 10243.742188 1558.40625 10214.40625 1640.785156 10155.730469 1640.785156 C 10119.875 1640.785156 10110.09375 1611.128906 10110.09375 1571.585938 C 10110.09375 1548.519531 10119.875 1495.796875 10129.652344 1459.550781 C 10139.433594 1420.011719 10155.730469 1360.695312 10162.25 1331.039062 L 10194.847656 1202.527344 C 10204.625 1166.28125 10217.664062 1103.675781 10217.664062 1097.082031 C 10217.664062 1067.425781 10194.847656 1050.953125 10172.03125 1050.953125 C 10155.730469 1050.953125 10129.652344 1057.542969 10113.355469 1083.902344 C 10110.09375 1093.789062 10097.054688 1139.921875 10090.535156 1169.578125 L 10061.199219 1288.203125 L 10018.820312 1466.140625 C 10009.042969 1502.390625 10009.042969 1505.683594 9996.003906 1522.160156 C 9950.367188 1584.769531 9888.433594 1640.785156 9806.9375 1640.785156 C 9692.847656 1640.785156 9692.847656 1538.636719 9692.847656 1515.570312 C 9692.847656 1476.027344 9696.109375 1459.550781 9715.667969 1380.46875 C 9731.964844 1317.859375 9731.964844 1307.972656 9748.265625 1251.957031 L 9767.824219 1172.871094 C 9774.34375 1143.214844 9787.378906 1087.199219 9787.378906 1080.609375 C 9787.378906 1057.542969 9767.824219 1037.769531 9741.746094 1037.769531 C 9689.589844 1037.769531 9676.550781 1087.199219 9673.289062 1103.675781 Z M 9474.445312 1897.808594 "/>
<path style=" stroke:none;fill-rule:nonzero;fill:rgb(0%,0%,0%);fill-opacity:1;" d="M 10738.386719 1077.3125 C 10738.386719 1070.722656 10741.644531 1064.132812 10741.644531 1057.542969 C 10741.644531 1054.246094 10741.644531 1037.769531 10718.828125 1037.769531 C 10715.570312 1037.769531 10637.335938 1044.359375 10627.554688 1044.359375 C 10598.21875 1047.65625 10575.398438 1047.65625 10546.0625 1050.953125 C 10523.246094 1050.953125 10506.945312 1054.246094 10506.945312 1083.902344 C 10506.945312 1103.675781 10526.503906 1103.675781 10542.800781 1103.675781 C 10611.257812 1103.675781 10611.257812 1113.558594 10611.257812 1126.738281 C 10611.257812 1133.332031 10604.738281 1162.988281 10598.21875 1179.460938 L 10529.765625 1469.4375 C 10493.90625 1614.425781 10487.386719 1640.785156 10487.386719 1647.375 C 10487.386719 1667.148438 10506.945312 1667.148438 10513.464844 1667.148438 L 10536.28125 1667.148438 C 10660.152344 1647.375 10842.699219 1581.472656 10992.644531 1443.074219 C 11184.96875 1271.726562 11214.308594 1083.902344 11214.308594 1080.609375 C 11214.308594 1057.542969 11194.75 1037.769531 11165.410156 1037.769531 C 11116.515625 1037.769531 11106.738281 1077.3125 11093.699219 1116.855469 C 11038.28125 1321.15625 10845.957031 1538.636719 10607.996094 1611.128906 Z M 10738.386719 1077.3125 "/>
<path style=" stroke:none;fill-rule:nonzero;fill:rgb(0%,0%,0%);fill-opacity:1;" d="M 12002.453125 1743.550781 L 12198.039062 1743.550781 C 12351.246094 1743.550781 12367.542969 1776.5 12367.542969 1835.816406 C 12367.542969 1848.996094 12367.542969 1875.355469 12354.503906 1937.964844 C 12347.984375 1947.851562 12347.984375 1954.441406 12347.984375 1957.734375 C 12347.984375 1974.210938 12357.765625 1984.097656 12370.804688 1984.097656 C 12390.363281 1984.097656 12390.363281 1977.507812 12403.402344 1941.261719 L 12514.234375 1496.414062 C 12520.753906 1473.347656 12520.753906 1470.050781 12520.753906 1463.460938 C 12520.753906 1460.164062 12514.234375 1440.394531 12494.675781 1440.394531 C 12475.117188 1440.394531 12471.855469 1450.28125 12465.335938 1483.230469 C 12422.960938 1644.695312 12374.0625 1680.941406 12204.558594 1680.941406 L 12018.753906 1680.941406 L 12149.140625 1160.304688 C 12165.441406 1087.8125 12168.699219 1081.222656 12256.714844 1081.222656 L 12524.011719 1081.222656 C 12775.011719 1081.222656 12820.648438 1147.125 12820.648438 1305.292969 C 12820.648438 1354.71875 12820.648438 1361.3125 12814.128906 1417.328125 C 12810.867188 1443.691406 12810.867188 1446.984375 12810.867188 1453.574219 C 12810.867188 1463.460938 12817.386719 1476.640625 12833.6875 1476.640625 C 12856.503906 1476.640625 12859.765625 1466.757812 12863.023438 1427.214844 L 12905.402344 1071.335938 C 12908.660156 1018.613281 12898.882812 1018.613281 12849.984375 1018.613281 L 11855.765625 1018.613281 C 11816.648438 1018.613281 11797.089844 1018.613281 11797.089844 1058.15625 C 11797.089844 1081.222656 11813.390625 1081.222656 11852.507812 1081.222656 C 11927.480469 1081.222656 11986.15625 1081.222656 11986.15625 1117.46875 C 11986.15625 1127.355469 11986.15625 1130.648438 11973.117188 1166.894531 L 11705.820312 2251.003906 C 11686.261719 2330.089844 11683 2346.566406 11523.273438 2346.566406 C 11487.417969 2346.566406 11467.859375 2346.566406 11467.859375 2386.109375 C 11467.859375 2409.171875 11490.675781 2409.171875 11497.195312 2409.171875 C 11555.871094 2409.171875 11705.820312 2402.582031 11764.492188 2402.582031 C 11829.6875 2402.582031 11999.195312 2409.171875 12064.390625 2409.171875 C 12083.949219 2409.171875 12106.765625 2409.171875 12106.765625 2369.632812 C 12106.765625 2353.15625 12096.988281 2349.859375 12096.988281 2346.566406 C 12090.46875 2346.566406 12087.207031 2346.566406 12038.3125 2346.566406 C 11995.933594 2346.566406 11986.15625 2346.566406 11934 2343.269531 C 11875.324219 2336.679688 11868.804688 2326.792969 11868.804688 2300.433594 C 11868.804688 2297.136719 11868.804688 2283.957031 11878.585938 2254.300781 Z M 12002.453125 1743.550781 "/>
<path style=" stroke:none;fill-rule:nonzero;fill:rgb(0%,0%,0%);fill-opacity:1;" d="M 12765.375 2946.5 C 12762.117188 2966.269531 12762.117188 2976.15625 12762.117188 2976.15625 C 12762.117188 3009.105469 12788.195312 3022.289062 12807.75 3022.289062 C 12859.90625 3022.289062 12872.945312 2976.15625 12876.207031 2949.792969 C 12879.464844 2943.203125 12908.804688 2827.871094 12941.402344 2689.476562 C 12987.039062 2719.132812 13042.453125 2729.015625 13094.609375 2729.015625 C 13215.21875 2729.015625 13293.453125 2630.164062 13296.710938 2626.867188 C 13322.789062 2725.722656 13420.582031 2729.015625 13443.398438 2729.015625 C 13495.554688 2729.015625 13528.152344 2699.359375 13554.230469 2653.230469 C 13586.828125 2597.210938 13603.125 2518.125 13603.125 2511.535156 C 13603.125 2491.765625 13586.828125 2491.765625 13580.308594 2491.765625 C 13560.75 2491.765625 13560.75 2498.355469 13550.972656 2537.898438 C 13534.671875 2607.097656 13505.335938 2689.476562 13446.660156 2689.476562 C 13410.800781 2689.476562 13401.023438 2659.820312 13401.023438 2620.277344 C 13401.023438 2597.210938 13410.800781 2544.488281 13420.582031 2508.242188 C 13430.359375 2468.699219 13446.660156 2409.386719 13453.179688 2379.730469 L 13485.777344 2251.21875 C 13495.554688 2214.972656 13508.59375 2152.363281 13508.59375 2145.773438 C 13508.59375 2116.117188 13485.777344 2099.640625 13462.957031 2099.640625 C 13446.660156 2099.640625 13420.582031 2106.230469 13404.28125 2132.59375 C 13401.023438 2142.476562 13387.984375 2188.609375 13381.464844 2218.265625 L 13352.128906 2336.894531 L 13309.75 2514.832031 C 13299.972656 2551.078125 13299.972656 2554.375 13286.933594 2570.847656 C 13241.296875 2633.457031 13179.363281 2689.476562 13097.867188 2689.476562 C 12983.777344 2689.476562 12983.777344 2587.324219 12983.777344 2564.257812 C 12983.777344 2524.71875 12987.039062 2508.242188 13006.59375 2429.15625 C 13022.894531 2366.550781 13022.894531 2356.664062 13039.191406 2300.644531 L 13058.75 2221.5625 C 13065.269531 2191.90625 13078.308594 2135.886719 13078.308594 2129.296875 C 13078.308594 2106.230469 13058.75 2086.460938 13032.671875 2086.460938 C 12980.519531 2086.460938 12967.480469 2135.886719 12964.21875 2152.363281 Z M 12765.375 2946.5 "/>
<path style=" stroke:none;fill-rule:nonzero;fill:rgb(0%,0%,0%);fill-opacity:1;" d="M 14029.316406 2126.003906 C 14029.316406 2119.410156 14032.574219 2112.820312 14032.574219 2106.230469 C 14032.574219 2102.9375 14032.574219 2086.460938 14009.757812 2086.460938 C 14006.496094 2086.460938 13928.265625 2093.050781 13918.484375 2093.050781 C 13889.148438 2096.34375 13866.328125 2096.34375 13836.992188 2099.640625 C 13814.171875 2099.640625 13797.875 2102.9375 13797.875 2132.59375 C 13797.875 2152.363281 13817.433594 2152.363281 13833.730469 2152.363281 C 13902.1875 2152.363281 13902.1875 2162.25 13902.1875 2175.429688 C 13902.1875 2182.019531 13895.667969 2211.675781 13889.148438 2228.152344 L 13820.691406 2518.125 C 13784.835938 2663.113281 13778.316406 2689.476562 13778.316406 2696.066406 C 13778.316406 2715.835938 13797.875 2715.835938 13804.394531 2715.835938 L 13827.210938 2715.835938 C 13951.082031 2696.066406 14133.628906 2630.164062 14283.574219 2491.765625 C 14475.898438 2320.417969 14505.238281 2132.59375 14505.238281 2129.296875 C 14505.238281 2106.230469 14485.679688 2086.460938 14456.339844 2086.460938 C 14407.445312 2086.460938 14397.664062 2126.003906 14384.625 2165.542969 C 14329.210938 2369.84375 14136.886719 2587.324219 13898.925781 2659.820312 Z M 14029.316406 2126.003906 "/>
</g>
</svg>
