<?xml version="1.0" encoding="UTF-8"?>
<svg xmlns="http://www.w3.org/2000/svg" xmlns:xlink="http://www.w3.org/1999/xlink" width="1560px" height="390px" viewBox="0 0 1560 390" version="1.1">
<g id="surface1">
<path style="fill:none;stroke-width:0.12329;stroke-linecap:butt;stroke-linejoin:miter;stroke:rgb(0%,0%,0%);stroke-opacity:1;stroke-miterlimit:10;" d="M 0.000989323 -0.000704456 Z M 0.000989323 -0.000704456 " transform="matrix(20.305607,0,0,-20.52632,777.015067,189.786321)"/>
<path style=" stroke:none;fill-rule:nonzero;fill:rgb(0%,0%,0%);fill-opacity:1;" d="M 122.464844 221.804688 C 133.21875 204.671875 136.804688 191.488281 139.414062 180.617188 C 146.585938 152.605469 154.082031 127.894531 166.796875 113.722656 C 169.078125 111.085938 170.707031 109.441406 177.226562 109.441406 C 191.242188 109.441406 191.570312 123.609375 191.570312 126.246094 C 191.570312 129.871094 190.59375 132.835938 190.59375 133.824219 C 190.59375 135.472656 191.894531 135.472656 191.894531 135.472656 C 195.15625 135.472656 200.695312 133.164062 205.914062 129.539062 C 209.5 126.574219 211.128906 124.597656 211.128906 116.03125 C 211.128906 105.15625 205.585938 96.589844 194.175781 96.589844 C 187.65625 96.589844 170.054688 98.238281 150.171875 118.667969 C 133.871094 135.472656 124.417969 172.046875 120.507812 187.535156 C 116.921875 201.703125 115.292969 207.964844 109.097656 220.15625 C 107.792969 222.792969 102.578125 231.691406 99.644531 234.328125 C 94.105469 239.597656 92.148438 243.222656 92.148438 244.210938 C 92.148438 244.542969 92.472656 245.53125 94.105469 245.53125 C 94.753906 245.53125 98.992188 244.542969 104.535156 241.246094 C 107.792969 238.941406 108.121094 238.609375 113.011719 233.667969 C 123.117188 233.996094 129.960938 235.644531 143 239.597656 C 153.105469 242.234375 163.535156 245.53125 173.96875 245.53125 C 190.265625 245.53125 206.890625 233.007812 213.410156 223.78125 C 217.320312 218.511719 218.625 213.238281 218.625 212.578125 C 218.625 211.261719 217.320312 211.261719 216.996094 211.261719 C 213.734375 211.261719 209.171875 213.566406 205.585938 215.875 C 200.046875 219.5 199.71875 220.816406 198.414062 224.113281 C 197.4375 227.40625 196.132812 229.054688 195.480469 230.371094 C 193.851562 232.679688 193.527344 232.679688 190.59375 232.679688 C 180.8125 232.679688 170.707031 229.714844 157.34375 226.089844 C 151.800781 224.441406 140.71875 221.144531 130.613281 221.144531 C 128.003906 221.144531 125.070312 221.144531 122.464844 221.804688 Z M 122.464844 221.804688 "/>
<path style=" stroke:none;fill-rule:nonzero;fill:rgb(0%,0%,0%);fill-opacity:1;" d="M 420.871094 174.027344 C 423.804688 174.027344 427.714844 174.027344 427.714844 170.070312 C 427.714844 165.789062 423.804688 165.789062 420.871094 165.789062 L 299.609375 165.789062 C 297 165.789062 293.089844 165.789062 293.089844 170.070312 C 293.089844 174.027344 297 174.027344 299.933594 174.027344 Z M 420.871094 213.566406 C 423.804688 213.566406 427.714844 213.566406 427.714844 209.613281 C 427.714844 205.660156 423.804688 205.660156 420.871094 205.660156 L 299.933594 205.660156 C 297 205.660156 293.089844 205.660156 293.089844 209.613281 C 293.089844 213.566406 297 213.566406 299.609375 213.566406 Z M 420.871094 213.566406 "/>
<path style=" stroke:none;fill-rule:nonzero;fill:rgb(0%,0%,0%);fill-opacity:1;" d="M 628.535156 193.796875 C 632.121094 193.796875 635.707031 193.796875 635.707031 189.84375 C 635.707031 185.558594 632.121094 185.558594 628.535156 185.558594 L 519.011719 185.558594 C 515.75 185.558594 512.164062 185.558594 512.164062 189.84375 C 512.164062 193.796875 515.75 193.796875 519.011719 193.796875 Z M 628.535156 193.796875 "/>
<path style=" stroke:none;fill-rule:nonzero;fill:rgb(0%,0%,0%);fill-opacity:1;" d="M 724.113281 69.445312 C 724.113281 65.492188 724.113281 65.492188 719.875 65.492188 C 711.074219 74.390625 698.035156 74.71875 692.167969 74.71875 L 692.167969 79.660156 C 695.753906 79.660156 704.882812 79.660156 712.703125 75.707031 L 712.703125 148.53125 C 712.703125 153.472656 712.703125 155.121094 698.6875 155.121094 L 693.144531 155.121094 L 693.144531 160.394531 C 695.753906 160.394531 713.355469 159.734375 718.570312 159.734375 C 722.808594 159.734375 740.738281 160.394531 743.671875 160.394531 L 743.671875 155.121094 L 738.457031 155.121094 C 724.113281 155.121094 724.113281 153.472656 724.113281 148.53125 Z M 724.113281 69.445312 "/>
<path style="fill:none;stroke-width:0.398;stroke-linecap:butt;stroke-linejoin:miter;stroke:rgb(0%,0%,0%);stroke-opacity:1;stroke-miterlimit:10;" d="M 0.00173566 -0.000704456 L 3.970775 -0.000704456 " transform="matrix(20.305607,0,0,-20.52632,676.847569,189.786321)"/>
<path style=" stroke:none;fill-rule:nonzero;fill:rgb(0%,0%,0%);fill-opacity:1;" d="M 751.820312 288.03125 L 751.820312 282.757812 L 735.847656 282.757812 L 735.847656 219.160156 C 735.847656 216.195312 735.847656 214.875 732.914062 214.875 C 731.285156 214.875 730.632812 214.875 729.328125 217.183594 L 682.390625 282.757812 L 682.390625 288.03125 L 724.113281 288.03125 L 724.113281 299.5625 C 724.113281 304.503906 724.113281 306.152344 712.378906 306.152344 L 708.792969 306.152344 L 708.792969 311.425781 C 715.636719 311.097656 724.765625 310.765625 729.980469 310.765625 C 735.195312 310.765625 744.324219 311.097656 751.167969 311.425781 L 751.167969 306.152344 L 747.582031 306.152344 C 735.847656 306.152344 735.847656 304.503906 735.847656 299.5625 L 735.847656 288.03125 Z M 725.089844 230.363281 L 725.089844 282.757812 L 687.605469 282.757812 Z M 725.089844 230.363281 "/>
<path style=" stroke:none;fill-rule:nonzero;fill:rgb(0%,0%,0%);fill-opacity:1;" d="M 843.027344 174.355469 L 862.585938 174.355469 C 877.910156 174.355469 879.539062 177.648438 879.539062 183.582031 C 879.539062 184.898438 879.539062 187.535156 878.234375 193.796875 C 877.582031 194.785156 877.582031 195.445312 877.582031 195.773438 C 877.582031 197.421875 878.558594 198.410156 879.863281 198.410156 C 881.820312 198.410156 881.820312 197.75 883.125 194.125 L 894.207031 149.640625 C 894.859375 147.335938 894.859375 147.003906 894.859375 146.347656 C 894.859375 146.015625 894.207031 144.039062 892.25 144.039062 C 890.296875 144.039062 889.96875 145.027344 889.316406 148.324219 C 885.078125 164.46875 880.191406 168.09375 863.238281 168.09375 L 844.660156 168.09375 L 857.699219 116.03125 C 859.328125 108.78125 859.652344 108.121094 868.457031 108.121094 L 895.183594 108.121094 C 920.285156 108.121094 924.847656 114.710938 924.847656 130.53125 C 924.847656 135.472656 924.847656 136.132812 924.195312 141.734375 C 923.871094 144.367188 923.871094 144.699219 923.871094 145.359375 C 923.871094 146.347656 924.523438 147.664062 926.152344 147.664062 C 928.433594 147.664062 928.761719 146.675781 929.085938 142.722656 L 933.324219 107.132812 C 933.648438 101.863281 932.671875 101.863281 927.78125 101.863281 L 828.359375 101.863281 C 824.449219 101.863281 822.492188 101.863281 822.492188 105.816406 C 822.492188 108.121094 824.121094 108.121094 828.035156 108.121094 C 835.53125 108.121094 841.398438 108.121094 841.398438 111.746094 C 841.398438 112.734375 841.398438 113.066406 840.09375 116.691406 L 813.367188 225.101562 C 811.410156 233.007812 811.082031 234.65625 795.109375 234.65625 C 791.527344 234.65625 789.570312 234.65625 789.570312 238.609375 C 789.570312 240.917969 791.851562 240.917969 792.503906 240.917969 C 798.371094 240.917969 813.367188 240.257812 819.234375 240.257812 C 825.753906 240.257812 842.703125 240.917969 849.222656 240.917969 C 851.179688 240.917969 853.460938 240.917969 853.460938 236.964844 C 853.460938 235.316406 852.484375 234.984375 852.484375 234.65625 C 851.832031 234.65625 851.503906 234.65625 846.613281 234.65625 C 842.378906 234.65625 841.398438 234.65625 836.183594 234.328125 C 830.316406 233.667969 829.664062 232.679688 829.664062 230.042969 C 829.664062 229.714844 829.664062 228.394531 830.640625 225.429688 Z M 843.027344 174.355469 "/>
<path style=" stroke:none;fill-rule:nonzero;fill:rgb(0%,0%,0%);fill-opacity:1;" d="M 947.445312 189.78125 C 947.117188 191.757812 947.117188 192.746094 947.117188 192.746094 C 947.117188 196.042969 949.726562 197.359375 951.683594 197.359375 C 956.898438 197.359375 958.203125 192.746094 958.527344 190.109375 C 958.855469 189.453125 961.789062 177.917969 965.046875 164.078125 C 969.609375 167.042969 975.152344 168.03125 980.367188 168.03125 C 992.429688 168.03125 1000.253906 158.148438 1000.578125 157.816406 C 1003.1875 167.703125 1012.964844 168.03125 1015.246094 168.03125 C 1020.460938 168.03125 1023.722656 165.066406 1026.332031 160.453125 C 1029.589844 154.851562 1031.21875 146.945312 1031.21875 146.285156 C 1031.21875 144.308594 1029.589844 144.308594 1028.9375 144.308594 C 1026.980469 144.308594 1026.980469 144.964844 1026.003906 148.921875 C 1024.375 155.839844 1021.441406 164.078125 1015.574219 164.078125 C 1011.988281 164.078125 1011.007812 161.113281 1011.007812 157.160156 C 1011.007812 154.851562 1011.988281 149.578125 1012.964844 145.957031 C 1013.941406 142 1015.574219 136.070312 1016.226562 133.105469 L 1019.484375 120.253906 C 1020.460938 116.628906 1021.765625 110.367188 1021.765625 109.707031 C 1021.765625 106.742188 1019.484375 105.09375 1017.203125 105.09375 C 1015.574219 105.09375 1012.964844 105.753906 1011.335938 108.390625 C 1011.007812 109.378906 1009.707031 113.992188 1009.054688 116.957031 L 1006.121094 128.820312 L 1001.882812 146.613281 C 1000.902344 150.238281 1000.902344 150.570312 999.601562 152.214844 C 995.035156 158.476562 988.84375 164.078125 980.695312 164.078125 C 969.285156 164.078125 969.285156 153.863281 969.285156 151.558594 C 969.285156 147.601562 969.609375 145.957031 971.566406 138.046875 C 973.195312 131.785156 973.195312 130.796875 974.828125 125.195312 L 976.78125 117.289062 C 977.433594 114.320312 978.738281 108.71875 978.738281 108.0625 C 978.738281 105.753906 976.78125 103.777344 974.175781 103.777344 C 968.957031 103.777344 967.65625 108.71875 967.328125 110.367188 Z M 947.445312 189.78125 "/>
<path style=" stroke:none;fill-rule:nonzero;fill:rgb(0%,0%,0%);fill-opacity:1;" d="M 1073.839844 107.730469 C 1073.839844 107.070312 1074.164062 106.414062 1074.164062 105.753906 C 1074.164062 105.425781 1074.164062 103.777344 1071.882812 103.777344 C 1071.558594 103.777344 1063.734375 104.4375 1062.753906 104.4375 C 1059.820312 104.765625 1057.539062 104.765625 1054.605469 105.09375 C 1052.324219 105.09375 1050.695312 105.425781 1050.695312 108.390625 C 1050.695312 110.367188 1052.652344 110.367188 1054.28125 110.367188 C 1061.125 110.367188 1061.125 111.355469 1061.125 112.675781 C 1061.125 113.332031 1060.472656 116.296875 1059.820312 117.945312 L 1052.976562 146.945312 C 1049.390625 161.441406 1048.738281 164.078125 1048.738281 164.738281 C 1048.738281 166.714844 1050.695312 166.714844 1051.347656 166.714844 L 1053.628906 166.714844 C 1066.015625 164.738281 1084.269531 158.148438 1099.265625 144.308594 C 1118.496094 127.171875 1121.429688 108.390625 1121.429688 108.0625 C 1121.429688 105.753906 1119.476562 103.777344 1116.542969 103.777344 C 1111.652344 103.777344 1110.671875 107.730469 1109.371094 111.683594 C 1103.828125 132.117188 1084.597656 153.863281 1060.800781 161.113281 Z M 1073.839844 107.730469 "/>
<path style=" stroke:none;fill-rule:nonzero;fill:rgb(0%,0%,0%);fill-opacity:1;" d="M 1200.246094 174.355469 L 1219.804688 174.355469 C 1235.125 174.355469 1236.753906 177.648438 1236.753906 183.582031 C 1236.753906 184.898438 1236.753906 187.535156 1235.449219 193.796875 C 1234.796875 194.785156 1234.796875 195.445312 1234.796875 195.773438 C 1234.796875 197.421875 1235.777344 198.410156 1237.082031 198.410156 C 1239.035156 198.410156 1239.035156 197.75 1240.339844 194.125 L 1251.421875 149.640625 C 1252.074219 147.335938 1252.074219 147.003906 1252.074219 146.347656 C 1252.074219 146.015625 1251.421875 144.039062 1249.46875 144.039062 C 1247.511719 144.039062 1247.1875 145.027344 1246.535156 148.324219 C 1242.296875 164.46875 1237.40625 168.09375 1220.457031 168.09375 L 1201.875 168.09375 L 1214.914062 116.03125 C 1216.542969 108.78125 1216.871094 108.121094 1225.671875 108.121094 L 1252.402344 108.121094 C 1277.5 108.121094 1282.066406 114.710938 1282.066406 130.53125 C 1282.066406 135.472656 1282.066406 136.132812 1281.414062 141.734375 C 1281.085938 144.367188 1281.085938 144.699219 1281.085938 145.359375 C 1281.085938 146.347656 1281.738281 147.664062 1283.367188 147.664062 C 1285.652344 147.664062 1285.976562 146.675781 1286.300781 142.722656 L 1290.539062 107.132812 C 1290.867188 101.863281 1289.886719 101.863281 1285 101.863281 L 1185.578125 101.863281 C 1181.664062 101.863281 1179.710938 101.863281 1179.710938 105.816406 C 1179.710938 108.121094 1181.339844 108.121094 1185.25 108.121094 C 1192.746094 108.121094 1198.617188 108.121094 1198.617188 111.746094 C 1198.617188 112.734375 1198.617188 113.066406 1197.3125 116.691406 L 1170.582031 225.101562 C 1168.625 233.007812 1168.300781 234.65625 1152.328125 234.65625 C 1148.742188 234.65625 1146.785156 234.65625 1146.785156 238.609375 C 1146.785156 240.917969 1149.066406 240.917969 1149.71875 240.917969 C 1155.585938 240.917969 1170.582031 240.257812 1176.449219 240.257812 C 1182.96875 240.257812 1199.917969 240.917969 1206.4375 240.917969 C 1208.394531 240.917969 1210.675781 240.917969 1210.675781 236.964844 C 1210.675781 235.316406 1209.699219 234.984375 1209.699219 234.65625 C 1209.046875 234.65625 1208.722656 234.65625 1203.832031 234.65625 C 1199.59375 234.65625 1198.617188 234.65625 1193.398438 234.328125 C 1187.53125 233.667969 1186.878906 232.679688 1186.878906 230.042969 C 1186.878906 229.714844 1186.878906 228.394531 1187.859375 225.429688 Z M 1200.246094 174.355469 "/>
<path style=" stroke:none;fill-rule:nonzero;fill:rgb(0%,0%,0%);fill-opacity:1;" d="M 1276.539062 294.648438 C 1276.210938 296.625 1276.210938 297.617188 1276.210938 297.617188 C 1276.210938 300.910156 1278.820312 302.230469 1280.773438 302.230469 C 1285.992188 302.230469 1287.292969 297.617188 1287.621094 294.980469 C 1287.945312 294.320312 1290.878906 282.789062 1294.140625 268.949219 C 1298.703125 271.914062 1304.246094 272.902344 1309.460938 272.902344 C 1321.523438 272.902344 1329.34375 263.015625 1329.671875 262.6875 C 1332.277344 272.570312 1342.058594 272.902344 1344.339844 272.902344 C 1349.554688 272.902344 1352.816406 269.9375 1355.421875 265.324219 C 1358.683594 259.722656 1360.3125 251.8125 1360.3125 251.152344 C 1360.3125 249.175781 1358.683594 249.175781 1358.03125 249.175781 C 1356.074219 249.175781 1356.074219 249.835938 1355.097656 253.789062 C 1353.46875 260.710938 1350.535156 268.949219 1344.664062 268.949219 C 1341.082031 268.949219 1340.101562 265.980469 1340.101562 262.027344 C 1340.101562 259.722656 1341.082031 254.449219 1342.058594 250.824219 C 1343.035156 246.871094 1344.664062 240.9375 1345.316406 237.972656 L 1348.578125 225.121094 C 1349.554688 221.496094 1350.859375 215.238281 1350.859375 214.578125 C 1350.859375 211.613281 1348.578125 209.964844 1346.296875 209.964844 C 1344.664062 209.964844 1342.058594 210.625 1340.429688 213.257812 C 1340.101562 214.246094 1338.796875 218.859375 1338.148438 221.828125 L 1335.210938 233.6875 L 1330.976562 251.484375 C 1329.996094 255.109375 1329.996094 255.4375 1328.691406 257.085938 C 1324.128906 263.347656 1317.9375 268.949219 1309.785156 268.949219 C 1298.378906 268.949219 1298.378906 258.734375 1298.378906 256.425781 C 1298.378906 252.472656 1298.703125 250.824219 1300.660156 242.914062 C 1302.289062 236.65625 1302.289062 235.667969 1303.917969 230.066406 L 1305.875 222.15625 C 1306.527344 219.191406 1307.832031 213.589844 1307.832031 212.929688 C 1307.832031 210.625 1305.875 208.644531 1303.265625 208.644531 C 1298.050781 208.644531 1296.746094 213.589844 1296.421875 215.238281 Z M 1276.539062 294.648438 "/>
<path style=" stroke:none;fill-rule:nonzero;fill:rgb(0%,0%,0%);fill-opacity:1;" d="M 1402.929688 212.601562 C 1402.929688 211.941406 1403.257812 211.28125 1403.257812 210.625 C 1403.257812 210.292969 1403.257812 208.644531 1400.976562 208.644531 C 1400.648438 208.644531 1392.828125 209.304688 1391.847656 209.304688 C 1388.914062 209.632812 1386.632812 209.632812 1383.699219 209.964844 C 1381.417969 209.964844 1379.789062 210.292969 1379.789062 213.257812 C 1379.789062 215.238281 1381.742188 215.238281 1383.375 215.238281 C 1390.21875 215.238281 1390.21875 216.226562 1390.21875 217.542969 C 1390.21875 218.203125 1389.566406 221.167969 1388.914062 222.816406 L 1382.070312 251.8125 C 1378.484375 266.3125 1377.832031 268.949219 1377.832031 269.605469 C 1377.832031 271.582031 1379.789062 271.582031 1380.4375 271.582031 L 1382.722656 271.582031 C 1395.109375 269.605469 1413.363281 263.015625 1428.359375 249.175781 C 1447.589844 232.042969 1450.523438 213.257812 1450.523438 212.929688 C 1450.523438 210.625 1448.566406 208.644531 1445.632812 208.644531 C 1440.746094 208.644531 1439.765625 212.601562 1438.460938 216.554688 C 1432.921875 236.984375 1413.6875 258.734375 1389.894531 265.980469 Z M 1402.929688 212.601562 "/>
</g>
</svg>
